<svg version="1.1" id="Layer_1" xmlns="http://www.w3.org/2000/svg" xmlns:xlink="http://www.w3.org/1999/xlink" x="0px" y="0px" viewBox="0 0 512 512" enable-background="new 0 0 512 512" xml:space="preserve">
<linearGradient id="SVGID_1_" gradientUnits="userSpaceOnUse" x1="272.3105" y1="451.034" x2="272.3105" y2="125.0401" class="gradient-element">
	<stop offset="0" class="primary-color-gradient" style="stop-color: #9DC3A9"></stop>
	<stop offset="1" class="secondary-color-gradient" style="stop-color: #73897B"></stop>
</linearGradient>
<path fill="url(#SVGID_1_)" d="M260.3,466.1l157.9-157.9c5.5-5.5,1.6-14.9-6.2-14.9h-89.6c-4.8,0-8.7-3.9-8.7-8.7V121.1
	c0-4.8-3.9-8.7-8.7-8.7h-16.8c-4.9,0-8.8,4-8.8,8.8v157.5c0,29.3-23.8,53.1-53.1,53.1h-95.2c-6.5,0-9.7,7.8-5.1,12.4l122,122
	C251.4,469.5,256.9,469.5,260.3,466.1z"></path>
<path d="M422.3,313.8L264.4,471.8c-3.3,3.3-7.5,4.9-11.8,4.9c-4.3,0-8.6-1.6-11.8-4.9L82.9,313.8c-4.8-4.8-6.2-11.9-3.6-18.2
	c2.6-6.3,8.7-10.3,15.4-10.3h89.6c0.4,0,0.7-0.3,0.7-0.7V123.1c0-9.2,7.5-16.7,16.7-16.7h25.7c4.4,0,8,3.6,8,8s-3.6,8-8,8h-25.7
	c-0.4,0-0.7,0.3-0.7,0.7v161.5c0,9.2-7.5,16.7-16.7,16.7H94.7c-0.2,0-0.5,0-0.7,0.4c-0.2,0.4,0,0.6,0.2,0.8l157.9,157.9
	c0.3,0.3,0.7,0.3,1,0L411,302.5c0.1-0.1,0.3-0.3,0.2-0.8c-0.2-0.4-0.5-0.4-0.7-0.4H321c-9.2,0-16.7-7.5-16.7-16.7v-197
	c0-4.4,3.6-8,8-8s8,3.6,8,8v197c0,0.4,0.3,0.7,0.7,0.7h89.6c6.8,0,12.8,4,15.4,10.3C428.6,301.9,427.1,309,422.3,313.8z"></path>

</svg>
