<svg version="1.1" id="Layer_1" xmlns="http://www.w3.org/2000/svg" xmlns:xlink="http://www.w3.org/1999/xlink" x="0px" y="0px" viewBox="0 0 512 512" enable-background="new 0 0 512 512" xml:space="preserve">
<linearGradient id="SVGID_1_" gradientUnits="userSpaceOnUse" x1="257.788" y1="454.6818" x2="257.788" y2="62.1719" class="gradient-element">
	<stop offset="0" class="primary-color-gradient" style="stop-color: #9DC3A9"></stop>
	<stop offset="1" class="secondary-color-gradient" style="stop-color: #73897B"></stop>
</linearGradient>
<path fill="url(#SVGID_1_)" d="M416.1,268.3c15.4-9.9,25.6-26.3,25.6-44.9c0-30.2-26.7-54.7-59.6-54.7c-2.9,0-5.7,0.2-8.5,0.6
	c1.8-5.4,2.8-11.2,2.7-17.2c-0.5-29.8-27.6-54-60.1-53.8c-2.8,0-5.5,0.2-8.2,0.6c34.5,6.7,47.6,46.7,30.3,72.3
	c2.8-0.4,5.6-0.6,8.5-0.6c32.9,0,51.8,4,52.7,43.9c0.3,16-2.6,28.9-14.5,38.9c-3,2.5-20.9-10.4-22,3.2
	c-2.3,27.9,37.1,18.2,39.5,49.5c2.3,29.7-24,38.1-34,35.5c-6.6-1.8-4.1,13.8-6.4,19.7c-16.3,43.5-80.6,43.5-96.4,30.4
	c-8.4-6.9,11.6,36.3,35,40.2c7.8,1.3,15.5,3.1,24.1,2.8c30.4-1,55.4-23.3,57.2-51.2c0.5-7.1-0.5-13.9-2.7-20.2
	c31.5-1.4,56.6-25.3,56.6-54.6C435.8,292.8,428.2,278.3,416.1,268.3z M224.6,60.8c-1.7,0-3.4,0.3-4.9,0.9c5.5,2,9.5,7.3,9.5,13.6
	c0,6.2-4,11.5-9.5,13.6c1.5,0.6,3.2,0.9,4.9,0.9c7.9,0,14.4-6.5,14.4-14.4C239.1,67.2,232.6,60.8,224.6,60.8z M127.1,183.7
	c-1.7,0-3.4,0.3-4.9,0.9c5.5,2,9.5,7.3,9.5,13.6c0,6.2-4,11.5-9.5,13.6c1.5,0.6,3.2,0.9,4.9,0.9c7.9,0,14.4-6.5,14.4-14.4
	C141.5,190.2,135,183.7,127.1,183.7z M79.9,254.3c-1.7,0-3.4,0.3-4.9,0.9c5.5,2,9.5,7.3,9.5,13.6c0,6.2-4,11.5-9.5,13.6
	c1.5,0.6,3.2,0.9,4.9,0.9c7.9,0,14.4-6.5,14.4-14.4C94.3,260.8,87.8,254.3,79.9,254.3z M78.8,386.4c-1.7,0-3.4,0.3-4.9,0.9
	c5.5,2,9.5,7.3,9.5,13.6c0,6.2-4,11.5-9.5,13.6c1.5,0.6,3.2,0.9,4.9,0.9c7.9,0,14.4-6.5,14.4-14.4C93.2,392.9,86.8,386.4,78.8,386.4
	z M225.6,437.7c-1.7,0-3.4,0.3-4.9,0.9c5.5,2,9.5,7.3,9.5,13.6c0,6.2-4,11.5-9.5,13.6c1.5,0.6,3.2,0.9,4.9,0.9
	c7.9,0,14.4-6.5,14.4-14.4C240.1,444.2,233.6,437.7,225.6,437.7z"></path>
<path d="M441.4,227.4c2.5-16.8-1.7-33.5-11.7-47.1c-10.7-14.5-26.5-23.1-43.1-25.2c0.1-0.4,0.1-0.8,0.1-1.3
	c0-35-28.5-63.5-63.5-63.5c-17,0-34.7,6.6-48.8,18c-15.1,12.3-23.4,28.2-23.6,44.7c0,0.1,0,0.3,0,0.4v6.7h-14.2h-2.6v-59.6
	c10.8-3.4,18.7-13.5,18.7-25.4c0-14.7-12-26.7-26.7-26.7s-26.7,12-26.7,26.7c0,11.9,7.9,22,18.7,25.4v59.6h-24.5c-4.4,0-8,3.6-8,8
	s3.6,8,8,8h32.5h10.6h14.2v47.2h-34V200c0-4.4-3.6-8-8-8H153c-2.8-11.8-13.3-20.6-26-20.6c-14.7,0-26.7,12-26.7,26.7
	s12,26.7,26.7,26.7c11.2,0,20.8-6.9,24.7-16.7c0.1,0,0.1,0,0.2,0h48.8v23.4c0,4.4,3.6,8,8,8h42v20.8H104.9
	c-3.4-10.8-13.5-18.7-25.4-18.7c-14.7,0-26.7,12-26.7,26.7s12,26.7,26.7,26.7c11.9,0,22-7.9,25.4-18.7h145.8v22h-99.8
	c-4.4,0-8,3.6-8,8s3.6,8,8,8h21.3v47.9h-57c-2.1,0-4.2,0.8-5.7,2.3L95,379.1c-4.4-3.1-9.7-5-15.5-5c-14.7,0-26.7,12-26.7,26.7
	s12,26.7,26.7,26.7s26.7-12,26.7-26.7c0-3.1-0.5-6-1.5-8.8l13.9-13.9h61.7c4.4,0,8-3.6,8-8v-55.9h62.5v16.8h-24.8c-4.4,0-8,3.6-8,8
	v87.6c-10.8,3.4-18.7,13.5-18.7,25.4c0,14.7,12,26.7,26.7,26.7s26.7-12,26.7-26.7c0-11.9-7.9-22-18.7-25.4v-79.6h16.8V377
	c0,0.8,0.1,1.6,0.4,2.4c0.7,16,9.1,31.2,23.6,43.2c14.1,11.5,31.9,18.2,48.8,18.2c30.8,0,57-21.9,62.5-52.2c0.8-4.3-2.1-8.5-6.5-9.3
	c-4.3-0.8-8.5,2.1-9.3,6.5c-4.1,22.6-23.7,39-46.7,39c-25.6,0-56.5-21.3-56.5-47.7c0-0.7-0.1-1.4-0.3-2.1V268.7
	c0-30.1,55.7-30.7,56.5-30.7c4.4,0,8-3.6,8-8c0-4.4-3.6-8-8-8c-0.7,0-17.5,0.1-34.5,5.2c-9.4,2.8-16.5,6.4-21.9,10.5v-83.8
	c0-26.3,30.9-47.5,56.4-47.5c26.2,0,47.5,21.3,47.5,47.5c0,0.4,0,0.8,0.1,1.2c-10.5,1.3-20.8,5.2-29.8,11.9
	c-3.6,2.6-4.3,7.6-1.7,11.2c2.6,3.6,7.6,4.3,11.2,1.7c21-15.6,50.8-11.1,66.4,9.9c7.5,10.2,10.7,22.7,8.8,35.2
	c-1.8,12.3-8.3,23.2-18.2,30.7c-9.9-6.5-21.8-10.2-34.5-10.2c-4.4,0-8,3.6-8,8s3.6,8,8,8c26.2,0,47.5,21.3,47.5,47.5
	c0,25.6-20.4,46.6-45.9,47.4c2.8-12,0.7-24.3-6.2-36.4c-2.4-4.2-7.7-5.6-11.9-3.2c-4.2,2.4-5.6,7.7-3.2,11.9
	c18.2,31.6-20.2,54.7-21.9,55.7c-4.2,2.4-5.6,7.7-3.2,11.9c1.6,2.8,4.5,4.3,7.5,4.3c1.5,0,3-0.4,4.4-1.2c0.6-0.3,13.6-8,23.7-21.1
	c1.8-2.4,3.4-4.8,4.8-7.2c1.3,0.8,2.8,1.3,4.4,1.3c35,0,63.5-28.5,63.5-63.5c0-16.4-6.3-31.4-16.5-42.7
	C431.5,256.3,439.1,242.7,441.4,227.4z M225.9,64.5c5.9,0,10.7,4.8,10.7,10.7c0,5.9-4.8,10.7-10.7,10.7s-10.7-4.8-10.7-10.7
	C215.3,69.3,220.1,64.5,225.9,64.5z M127.1,208.8c-5.9,0-10.7-4.8-10.7-10.7s4.8-10.7,10.7-10.7s10.7,4.8,10.7,10.7
	S132.9,208.8,127.1,208.8z M79.5,411.5c-5.9,0-10.7-4.8-10.7-10.7s4.8-10.7,10.7-10.7s10.7,4.8,10.7,10.7S85.4,411.5,79.5,411.5z
	 M225.9,462.8c-5.9,0-10.7-4.8-10.7-10.7s4.8-10.7,10.7-10.7s10.7,4.8,10.7,10.7S231.8,462.8,225.9,462.8z M79.5,278.9
	c-5.9,0-10.7-4.8-10.7-10.7s4.8-10.7,10.7-10.7s10.7,4.8,10.7,10.7S85.4,278.9,79.5,278.9z"></path>
<path d="M444.7,395.5c0,20.3-16.5,36.8-36.8,36.8c-4.4,0-8-3.6-8-8s3.6-8,8-8c11.4,0,20.8-9.3,20.8-20.8c0-4.4,3.6-8,8-8
	S444.7,391.1,444.7,395.5z M466,395.5c0-4.4-3.6-8-8-8s-8,3.6-8,8c0,20.3,16.5,36.8,36.8,36.8c4.4,0,8-3.6,8-8s-3.6-8-8-8
	C475.3,416.3,466,407,466,395.5z M486.7,437.5c-20.3,0-36.8,16.5-36.8,36.8c0,4.4,3.6,8,8,8s8-3.6,8-8c0-11.4,9.3-20.8,20.8-20.8
	c4.4,0,8-3.6,8-8S491.2,437.5,486.7,437.5z M408,437.5c-4.4,0-8,3.6-8,8s3.6,8,8,8c11.4,0,20.8,9.3,20.8,20.8c0,4.4,3.6,8,8,8
	s8-3.6,8-8C444.7,454,428.3,437.5,408,437.5z M432.9,121.7h43c4.4,0,8-3.6,8-8s-3.6-8-8-8h-43c-4.4,0-8,3.6-8,8
	S428.5,121.7,432.9,121.7z M476.1,227.8v43c0,4.4,3.6,8,8,8s8-3.6,8-8v-43c0-4.4-3.6-8-8-8S476.1,223.4,476.1,227.8z M35.9,125.9
	c4.4,0,8-3.6,8-8V44.1c0-4.4-3.6-8-8-8s-8,3.6-8,8v73.8C27.9,122.3,31.4,125.9,35.9,125.9z M163.2,455.7h-15.8v-15.8
	c0-4.4-3.6-8-8-8s-8,3.6-8,8v15.8h-15.8c-4.4,0-8,3.6-8,8s3.6,8,8,8h15.8v15.8c0,4.4,3.6,8,8,8s8-3.6,8-8v-15.8h15.8
	c4.4,0,8-3.6,8-8S167.6,455.7,163.2,455.7z M447.4,50.8h3.9v3.9c0,4.4,3.6,8,8,8s8-3.6,8-8v-3.9h3.9c4.4,0,8-3.6,8-8s-3.6-8-8-8
	h-3.9v-3.9c0-4.4-3.6-8-8-8s-8,3.6-8,8v3.9h-3.9c-4.4,0-8,3.6-8,8S443,50.8,447.4,50.8z M38.1,189.3c-5.9,0-10.8,4.8-10.8,10.8
	s4.8,10.8,10.8,10.8S48.8,206,48.8,200S44,189.3,38.1,189.3z M357.5,30c4.4,0,8-3.6,8-8s-3.6-8-8-8c-14.6,0-26.4,11.8-26.4,26.4
	s11.8,26.4,26.4,26.4c4.4,0,8-3.6,8-8s-3.6-8-8-8c-5.7,0-10.4-4.7-10.4-10.4S351.8,30,357.5,30z M121.9,101.8h3.9v3.9
	c0,4.4,3.6,8,8,8s8-3.6,8-8v-3.9h3.9c4.4,0,8-3.6,8-8s-3.6-8-8-8h-3.9v-3.9c0-4.4-3.6-8-8-8s-8,3.6-8,8v3.9h-3.9c-4.4,0-8,3.6-8,8
	S117.5,101.8,121.9,101.8z"></path>
<path fill="#73897B" class="secondary-color" d="M150.7,20v21.8H93.7V20H150.7z"></path>
</svg>
